<?xml version="1.0" encoding="utf-8"?>
<!-- Generator: Adobe Illustrator 21.0.1, SVG Export Plug-In . SVG Version: 6.00 Build 0)  -->
<svg version="1.1" id="Calque_1" xmlns="http://www.w3.org/2000/svg" xmlns:xlink="http://www.w3.org/1999/xlink" x="0px" y="0px"
	 viewBox="0 0 300 200" style="enable-background:new 0 0 300 200;" xml:space="preserve">
<g>
	<path d="M276.6,89c0-0.8,0-1.3,0-1.9c0-4.8,0-9.5,0-14.3c0-4,2.9-7.1,6.6-7.1c3.7,0,6.7,3,6.8,7c0.1,4.2,0,8.4,0,12.6
		c0,8.2,0.1,16.5,0,24.7c-0.1,9.5-4.3,16.8-12.7,21.5c-14,7.7-32.1-1.3-34.4-17.1c-2.2-14.9,9-27.8,24-27.5c2.7,0.1,5.3,1,8,1.5
		C275.3,88.5,275.8,88.7,276.6,89z M266.1,120.8c5.8,0.1,10.4-4.4,10.5-10c0.1-5.8-4.4-10.5-10-10.6c-6-0.1-10.7,4.4-10.8,10.3
		C255.8,116.1,260.4,120.7,266.1,120.8z"/>
	<path d="M115.5,118.3c0,3,0,6,0,9c0,3-1.3,5.2-4,6.3c-2.7,1.2-5.2,0.7-7.2-1.4c-0.8-0.8-1.4-0.7-2.3-0.3
		c-16.6,7.7-34.9-4.9-33.9-23.1c0.6-10.9,9.6-20.3,20.3-21.9c12.4-1.8,25.5,6.8,27,21.2C115.7,111.5,115.4,114.9,115.5,118.3
		C115.5,118.3,115.5,118.3,115.5,118.3z M91.8,120.8c5.9,0,10.3-4.5,10.3-10.4c0-5.7-4.6-10.2-10.3-10.2c-5.8,0-10.4,4.6-10.3,10.4
		C81.5,116.3,86,120.8,91.8,120.8z"/>
	<path d="M208.2,134.2c-13.2,0-23.8-10.6-23.8-23.8c0-13.1,10.7-23.7,23.7-23.7c13.1,0,23.8,10.7,23.8,23.8
		C232,123.6,221.3,134.2,208.2,134.2z M208.2,120.8c5.8,0,10.4-4.6,10.4-10.3c0-5.7-4.7-10.3-10.5-10.3c-5.7,0-10.3,4.5-10.3,10.3
		C197.8,116.3,202.4,120.8,208.2,120.8z"/>
	<path d="M57.5,92.1c0,6.1,0,12.2,0,18.3c0,12.6-9,22.7-21.2,23.8c-12.9,1.1-23.9-7.3-26.1-19.9c-0.2-1-0.3-2.1-0.3-3.1
		c-0.1-4.1,2.6-7.1,6.4-7.2c3.9-0.1,6.8,2.8,7,6.9c0.2,4.8,3.2,8.6,7.9,9.7c6.3,1.5,12.6-3.2,12.7-9.6c0.1-12.7,0-25.4,0.1-38.1
		c0-3.4,1.9-6.1,4.9-6.9c4.3-1.2,8.5,2,8.5,6.5C57.6,79,57.5,85.5,57.5,92.1z"/>
	<path d="M173.6,118.1c0,3.2,0.1,6.4,0,9.6c-0.1,3.4-2.6,6.1-5.7,6.5c-3.4,0.4-6.4-1.6-7.3-4.8c-0.2-0.8-0.2-1.7-0.2-2.5
		c-0.1-5.9,0-11.8-0.3-17.6c-0.3-5.5-5.2-9.3-11-9.1c-5.1,0.2-9.5,4.9-9.5,10.1c0,5.6,0,11.1,0,16.7c0,4.2-2.7,7.2-6.6,7.2
		c-4,0-6.8-3-6.8-7.3c0-5.7,0-11.4,0-17.2c0.1-11.1,9.1-21.3,20.1-22.8c13.5-1.8,25.1,6.8,27.1,20.2c0.5,3.5,0.1,7.2,0.1,10.8
		C173.4,118.1,173.5,118.1,173.6,118.1z"/>
</g>
</svg>
